<mxfile host="app.diagrams.net" modified="2024-07-07T01:55:38.432Z" agent="Mozilla/5.0 (Macintosh; Intel Mac OS X 10_15_7) AppleWebKit/537.36 (KHTML, like Gecko) Chrome/126.0.0.0 Safari/537.36" etag="5XtFRecxDds-ZtaC9Ut1" version="24.6.4" type="github">
  <diagram name="Página-1" id="PH-21oUii5OvqOmcmcfr">
    <mxGraphModel dx="937" dy="628" grid="1" gridSize="10" guides="1" tooltips="1" connect="1" arrows="1" fold="1" page="1" pageScale="1" pageWidth="827" pageHeight="1169" math="0" shadow="0">
      <root>
        <mxCell id="0" />
        <mxCell id="1" parent="0" />
        <mxCell id="XufHyH7dAvrkfqzrgDh5-1" value="Usuario" style="rounded=0;whiteSpace=wrap;html=1;" parent="1" vertex="1">
          <mxGeometry x="240" y="460" width="120" height="60" as="geometry" />
        </mxCell>
        <mxCell id="XufHyH7dAvrkfqzrgDh5-5" value="n" style="edgeStyle=orthogonalEdgeStyle;rounded=0;orthogonalLoop=1;jettySize=auto;html=1;endArrow=oval;endFill=1;" parent="1" source="XufHyH7dAvrkfqzrgDh5-2" target="XufHyH7dAvrkfqzrgDh5-4" edge="1">
          <mxGeometry x="-0.6" y="-10" relative="1" as="geometry">
            <mxPoint as="offset" />
          </mxGeometry>
        </mxCell>
        <mxCell id="XufHyH7dAvrkfqzrgDh5-2" value="Cuenta" style="rounded=0;whiteSpace=wrap;html=1;" parent="1" vertex="1">
          <mxGeometry x="540" y="460" width="120" height="60" as="geometry" />
        </mxCell>
        <mxCell id="XufHyH7dAvrkfqzrgDh5-3" value="Transacción" style="rounded=0;whiteSpace=wrap;html=1;" parent="1" vertex="1">
          <mxGeometry x="540" y="230" width="120" height="60" as="geometry" />
        </mxCell>
        <mxCell id="XufHyH7dAvrkfqzrgDh5-6" value="1" style="edgeStyle=orthogonalEdgeStyle;rounded=0;orthogonalLoop=1;jettySize=auto;html=1;endArrow=none;endFill=0;" parent="1" source="XufHyH7dAvrkfqzrgDh5-4" target="XufHyH7dAvrkfqzrgDh5-1" edge="1">
          <mxGeometry x="0.6" y="-10" relative="1" as="geometry">
            <mxPoint as="offset" />
          </mxGeometry>
        </mxCell>
        <mxCell id="XufHyH7dAvrkfqzrgDh5-4" value="" style="rhombus;whiteSpace=wrap;html=1;" parent="1" vertex="1">
          <mxGeometry x="410" y="450" width="80" height="80" as="geometry" />
        </mxCell>
        <mxCell id="XufHyH7dAvrkfqzrgDh5-7" value="n" style="edgeStyle=orthogonalEdgeStyle;rounded=0;orthogonalLoop=1;jettySize=auto;html=1;endArrow=oval;endFill=1;" parent="1" source="XufHyH7dAvrkfqzrgDh5-3" target="XufHyH7dAvrkfqzrgDh5-9" edge="1">
          <mxGeometry x="-0.6" y="-10" relative="1" as="geometry">
            <mxPoint x="690" y="380" as="sourcePoint" />
            <mxPoint as="offset" />
          </mxGeometry>
        </mxCell>
        <mxCell id="XufHyH7dAvrkfqzrgDh5-8" value="1" style="edgeStyle=orthogonalEdgeStyle;rounded=0;orthogonalLoop=1;jettySize=auto;html=1;endArrow=none;endFill=0;" parent="1" source="XufHyH7dAvrkfqzrgDh5-9" target="XufHyH7dAvrkfqzrgDh5-2" edge="1">
          <mxGeometry x="0.6" y="-10" relative="1" as="geometry">
            <mxPoint x="660" y="490" as="targetPoint" />
            <mxPoint as="offset" />
          </mxGeometry>
        </mxCell>
        <mxCell id="XufHyH7dAvrkfqzrgDh5-9" value="" style="rhombus;whiteSpace=wrap;html=1;" parent="1" vertex="1">
          <mxGeometry x="560" y="340" width="80" height="80" as="geometry" />
        </mxCell>
        <mxCell id="XufHyH7dAvrkfqzrgDh5-18" value="Categoria" style="rounded=0;whiteSpace=wrap;html=1;" parent="1" vertex="1">
          <mxGeometry x="240" y="230" width="120" height="60" as="geometry" />
        </mxCell>
        <mxCell id="XufHyH7dAvrkfqzrgDh5-19" value="" style="rhombus;whiteSpace=wrap;html=1;" parent="1" vertex="1">
          <mxGeometry x="400" y="220" width="80" height="80" as="geometry" />
        </mxCell>
        <mxCell id="XufHyH7dAvrkfqzrgDh5-20" value="1" style="edgeStyle=orthogonalEdgeStyle;rounded=0;orthogonalLoop=1;jettySize=auto;html=1;endArrow=none;endFill=0;" parent="1" source="XufHyH7dAvrkfqzrgDh5-19" target="XufHyH7dAvrkfqzrgDh5-18" edge="1">
          <mxGeometry x="0.6" y="-10" relative="1" as="geometry">
            <mxPoint x="200" y="380" as="targetPoint" />
            <mxPoint as="offset" />
            <mxPoint x="250" y="380" as="sourcePoint" />
          </mxGeometry>
        </mxCell>
        <mxCell id="XufHyH7dAvrkfqzrgDh5-21" value="n" style="edgeStyle=orthogonalEdgeStyle;rounded=0;orthogonalLoop=1;jettySize=auto;html=1;endArrow=none;endFill=0;" parent="1" source="XufHyH7dAvrkfqzrgDh5-19" target="XufHyH7dAvrkfqzrgDh5-3" edge="1">
          <mxGeometry x="0.6" y="-10" relative="1" as="geometry">
            <mxPoint x="610" y="90" as="targetPoint" />
            <mxPoint as="offset" />
            <mxPoint x="610" y="130" as="sourcePoint" />
          </mxGeometry>
        </mxCell>
        <mxCell id="XufHyH7dAvrkfqzrgDh5-22" value="Subcategoria" style="rhombus;whiteSpace=wrap;html=1;" parent="1" vertex="1">
          <mxGeometry x="190" y="110" width="80" height="80" as="geometry" />
        </mxCell>
        <mxCell id="XufHyH7dAvrkfqzrgDh5-24" value="1" style="edgeStyle=orthogonalEdgeStyle;rounded=0;orthogonalLoop=1;jettySize=auto;html=1;endArrow=none;endFill=0;entryX=0;entryY=0.5;entryDx=0;entryDy=0;exitX=0;exitY=0.5;exitDx=0;exitDy=0;" parent="1" source="XufHyH7dAvrkfqzrgDh5-18" target="XufHyH7dAvrkfqzrgDh5-22" edge="1">
          <mxGeometry x="-0.8824" y="10" relative="1" as="geometry">
            <mxPoint x="60" y="490" as="targetPoint" />
            <mxPoint x="-1" as="offset" />
            <mxPoint x="110" y="490" as="sourcePoint" />
          </mxGeometry>
        </mxCell>
        <mxCell id="XufHyH7dAvrkfqzrgDh5-25" value="n" style="edgeStyle=orthogonalEdgeStyle;rounded=0;orthogonalLoop=1;jettySize=auto;html=1;endArrow=none;endFill=0;entryX=1;entryY=0.5;entryDx=0;entryDy=0;exitX=0.5;exitY=0;exitDx=0;exitDy=0;" parent="1" source="XufHyH7dAvrkfqzrgDh5-18" target="XufHyH7dAvrkfqzrgDh5-22" edge="1">
          <mxGeometry x="-0.8181" y="-10" relative="1" as="geometry">
            <mxPoint x="270" y="160" as="targetPoint" />
            <mxPoint y="1" as="offset" />
            <mxPoint x="250" y="270" as="sourcePoint" />
          </mxGeometry>
        </mxCell>
        <mxCell id="XufHyH7dAvrkfqzrgDh5-26" value="" style="rhombus;whiteSpace=wrap;html=1;" parent="1" vertex="1">
          <mxGeometry x="260" y="340" width="80" height="80" as="geometry" />
        </mxCell>
        <mxCell id="XufHyH7dAvrkfqzrgDh5-27" value="1" style="edgeStyle=orthogonalEdgeStyle;rounded=0;orthogonalLoop=1;jettySize=auto;html=1;endArrow=none;endFill=0;exitX=0.5;exitY=0;exitDx=0;exitDy=0;entryX=0.5;entryY=1;entryDx=0;entryDy=0;" parent="1" source="XufHyH7dAvrkfqzrgDh5-1" target="XufHyH7dAvrkfqzrgDh5-26" edge="1">
          <mxGeometry x="-0.5" y="10" relative="1" as="geometry">
            <mxPoint x="880" y="170" as="targetPoint" />
            <mxPoint y="1" as="offset" />
            <mxPoint x="860" y="280" as="sourcePoint" />
          </mxGeometry>
        </mxCell>
        <mxCell id="XufHyH7dAvrkfqzrgDh5-28" value="n" style="edgeStyle=orthogonalEdgeStyle;rounded=0;orthogonalLoop=1;jettySize=auto;html=1;endArrow=none;endFill=0;entryX=0.5;entryY=0;entryDx=0;entryDy=0;" parent="1" source="XufHyH7dAvrkfqzrgDh5-18" target="XufHyH7dAvrkfqzrgDh5-26" edge="1">
          <mxGeometry x="-0.6" y="-10" relative="1" as="geometry">
            <mxPoint x="960" y="170" as="targetPoint" />
            <mxPoint y="-1" as="offset" />
            <mxPoint x="980" y="280" as="sourcePoint" />
          </mxGeometry>
        </mxCell>
        <mxCell id="J4saRh8QKIJe-090jWdf-1" value="&lt;div style=&quot;box-sizing:border-box;width:100%;background:#e4e4e4;padding:2px;&quot;&gt;User&lt;/div&gt;&lt;table style=&quot;width:100%;font-size:1em;&quot; cellpadding=&quot;2&quot; cellspacing=&quot;0&quot;&gt;&lt;tbody&gt;&lt;tr&gt;&lt;td&gt;PK&lt;/td&gt;&lt;td&gt;UserId&lt;span style=&quot;white-space: pre;&quot;&gt;&#x9;&lt;/span&gt;&lt;/td&gt;&lt;/tr&gt;&lt;tr&gt;&lt;td&gt;&lt;br&gt;&lt;/td&gt;&lt;td&gt;UserEmail&lt;/td&gt;&lt;/tr&gt;&lt;tr&gt;&lt;td&gt;&lt;br&gt;&lt;/td&gt;&lt;td&gt;UserName&lt;br&gt;&lt;/td&gt;&lt;/tr&gt;&lt;tr&gt;&lt;td&gt;&lt;/td&gt;&lt;td&gt;UserPassword&lt;/td&gt;&lt;/tr&gt;&lt;/tbody&gt;&lt;/table&gt;" style="verticalAlign=top;align=left;overflow=fill;html=1;whiteSpace=wrap;" vertex="1" parent="1">
          <mxGeometry x="790" y="150" width="180" height="120" as="geometry" />
        </mxCell>
        <mxCell id="J4saRh8QKIJe-090jWdf-2" value="&lt;div style=&quot;box-sizing:border-box;width:100%;background:#e4e4e4;padding:2px;&quot;&gt;Account&lt;/div&gt;&lt;table style=&quot;width:100%;font-size:1em;&quot; cellpadding=&quot;2&quot; cellspacing=&quot;0&quot;&gt;&lt;tbody&gt;&lt;tr&gt;&lt;td&gt;PK&lt;/td&gt;&lt;td&gt;&lt;span style=&quot;background-color: rgb(228, 228, 228);&quot;&gt;AccountId&lt;/span&gt;&lt;br&gt;&lt;/td&gt;&lt;/tr&gt;&lt;tr&gt;&lt;td&gt;&lt;br&gt;&lt;/td&gt;&lt;td&gt;&lt;span style=&quot;background-color: rgb(228, 228, 228);&quot;&gt;AccountName&lt;/span&gt;&lt;br&gt;&lt;/td&gt;&lt;/tr&gt;&lt;tr&gt;&lt;td&gt;FK&lt;/td&gt;&lt;td&gt;&lt;span style=&quot;background-color: rgb(228, 228, 228);&quot;&gt;Account&lt;/span&gt;UserId&lt;/td&gt;&lt;/tr&gt;&lt;/tbody&gt;&lt;/table&gt;" style="verticalAlign=top;align=left;overflow=fill;html=1;whiteSpace=wrap;" vertex="1" parent="1">
          <mxGeometry x="1020" y="150" width="180" height="120" as="geometry" />
        </mxCell>
        <mxCell id="J4saRh8QKIJe-090jWdf-3" value="&lt;div style=&quot;box-sizing:border-box;width:100%;background:#e4e4e4;padding:2px;&quot;&gt;Transaction&lt;br&gt;&lt;/div&gt;&lt;table style=&quot;width:100%;font-size:1em;&quot; cellpadding=&quot;2&quot; cellspacing=&quot;0&quot;&gt;&lt;tbody&gt;&lt;tr&gt;&lt;td&gt;PK&lt;/td&gt;&lt;td&gt;&lt;span style=&quot;background-color: rgb(228, 228, 228);&quot;&gt;TransactionId&lt;/span&gt;&lt;br&gt;&lt;/td&gt;&lt;/tr&gt;&lt;tr&gt;&lt;td&gt;&lt;br&gt;&lt;/td&gt;&lt;td&gt;&lt;span style=&quot;background-color: rgb(228, 228, 228);&quot;&gt;TransactionDescription&lt;/span&gt;&lt;br&gt;&lt;/td&gt;&lt;/tr&gt;&lt;tr&gt;&lt;td&gt;&lt;br&gt;&lt;/td&gt;&lt;td&gt;&lt;span style=&quot;background-color: rgb(228, 228, 228);&quot;&gt;TransactionAmount&lt;/span&gt;&lt;br&gt;&lt;/td&gt;&lt;/tr&gt;&lt;tr&gt;&lt;td&gt;&lt;br&gt;&lt;/td&gt;&lt;td&gt;&lt;span style=&quot;background-color: rgb(228, 228, 228);&quot;&gt;TransactionType&lt;/span&gt;&lt;br&gt;&lt;/td&gt;&lt;/tr&gt;&lt;tr&gt;&lt;td&gt;&lt;br&gt;&lt;/td&gt;&lt;td&gt;&lt;span style=&quot;background-color: rgb(228, 228, 228);&quot;&gt;TransactionTaxReturn&lt;/span&gt;&lt;br&gt;&lt;/td&gt;&lt;/tr&gt;&lt;tr&gt;&lt;td&gt;FK&lt;/td&gt;&lt;td&gt;&lt;span style=&quot;background-color: rgb(228, 228, 228);&quot;&gt;Transaction&lt;/span&gt;&lt;span style=&quot;background-color: rgb(228, 228, 228);&quot;&gt;CategoryId&lt;/span&gt;&lt;br&gt;&lt;/td&gt;&lt;/tr&gt;&lt;tr&gt;&lt;td&gt;FK&lt;/td&gt;&lt;td&gt;&lt;span style=&quot;background-color: rgb(228, 228, 228);&quot;&gt;Transaction&lt;/span&gt;&lt;span style=&quot;background-color: rgb(228, 228, 228);&quot;&gt;AccountId&lt;/span&gt;&lt;br&gt;&lt;/td&gt;&lt;/tr&gt;&lt;/tbody&gt;&lt;/table&gt;" style="verticalAlign=top;align=left;overflow=fill;html=1;whiteSpace=wrap;" vertex="1" parent="1">
          <mxGeometry x="1250" y="150" width="180" height="150" as="geometry" />
        </mxCell>
        <mxCell id="J4saRh8QKIJe-090jWdf-4" value="&lt;div style=&quot;box-sizing:border-box;width:100%;background:#e4e4e4;padding:2px;&quot;&gt;Category&lt;/div&gt;&lt;table style=&quot;width:100%;font-size:1em;&quot; cellpadding=&quot;2&quot; cellspacing=&quot;0&quot;&gt;&lt;tbody&gt;&lt;tr&gt;&lt;td&gt;PK&lt;/td&gt;&lt;td&gt;&lt;span style=&quot;background-color: rgb(228, 228, 228);&quot;&gt;CategoryId&lt;/span&gt;&lt;br&gt;&lt;/td&gt;&lt;/tr&gt;&lt;tr&gt;&lt;td&gt;&lt;br&gt;&lt;/td&gt;&lt;td&gt;&lt;span style=&quot;background-color: rgb(228, 228, 228);&quot;&gt;CategoryName&lt;/span&gt;&lt;br&gt;&lt;/td&gt;&lt;/tr&gt;&lt;tr&gt;&lt;td&gt;FK&lt;/td&gt;&lt;td&gt;&lt;span style=&quot;background-color: rgb(228, 228, 228);&quot;&gt;Category&lt;/span&gt;UserId&lt;/td&gt;&lt;/tr&gt;&lt;tr&gt;&lt;td&gt;FK&lt;/td&gt;&lt;td&gt;Category&lt;span style=&quot;background-color: rgb(228, 228, 228);&quot;&gt;Father&lt;/span&gt;&lt;/td&gt;&lt;/tr&gt;&lt;/tbody&gt;&lt;/table&gt;" style="verticalAlign=top;align=left;overflow=fill;html=1;whiteSpace=wrap;" vertex="1" parent="1">
          <mxGeometry x="1480" y="150" width="180" height="120" as="geometry" />
        </mxCell>
      </root>
    </mxGraphModel>
  </diagram>
</mxfile>
